<?xml version="1.0" encoding="utf-8"?>
<!-- Generator: Adobe Illustrator 22.0.1, SVG Export Plug-In . SVG Version: 6.00 Build 0)  -->
<svg version="1.1" id="Layer_1" xmlns="http://www.w3.org/2000/svg" xmlns:xlink="http://www.w3.org/1999/xlink" x="0px" y="0px"
	 viewBox="0 0 1500 1000" style="enable-background:new 0 0 1500 1000;" xml:space="preserve">
<style type="text/css">
	.st0{fill:#FFFFFF;}
	.st1{fill:none;stroke:#FD637E;stroke-width:6;stroke-linecap:round;stroke-linejoin:round;}
	.st2{fill:#FFFFFF;stroke:#3C3C3C;stroke-width:3;stroke-miterlimit:10;}
	.st3{fill:#F0F0F0;}
	.st4{fill:#FD3A5C;}
	.st5{fill:#17CCBD;}
	.st6{fill:none;stroke:#3C3C3C;stroke-width:3;stroke-miterlimit:10;}
	.st7{fill:none;stroke:#C5C5C5;stroke-width:6;stroke-linecap:round;stroke-linejoin:round;}
	.st8{fill:none;stroke:#C5C5C5;stroke-width:3;stroke-linecap:round;stroke-linejoin:round;}
	.st9{fill:#FD3A5C;stroke:#FD3A5C;stroke-width:2;stroke-linecap:round;stroke-linejoin:round;}
	.st10{fill:#5DFFD3;}
	.st11{fill:none;stroke:#FD3A5C;stroke-width:3;stroke-linecap:round;stroke-linejoin:round;}
	.st12{fill:#B4FDFE;}
	.st13{fill:none;stroke:#3C3C3C;stroke-width:4;stroke-linecap:round;stroke-linejoin:round;}
	.st14{fill:#FFFFFF;stroke:#3C3C3C;stroke-width:3;stroke-linecap:round;stroke-linejoin:round;}
	.st15{fill:none;stroke:#FD3A5C;stroke-width:20;stroke-linejoin:round;}
	.st16{fill:none;stroke:#3C3C3C;stroke-width:3;stroke-linecap:round;stroke-linejoin:round;}
	.st17{fill:none;stroke:#17CCBD;stroke-width:6;stroke-linecap:round;stroke-linejoin:round;}
	.st18{fill:#5DFFD3;stroke:#FFFFFF;stroke-width:3;stroke-miterlimit:10;}
	.st19{fill:#3C3C3C;stroke:#3C3C3C;stroke-width:4;stroke-linecap:round;stroke-linejoin:round;}
	.st20{fill:none;stroke:#3C3C3C;stroke-width:6;stroke-linecap:round;stroke-linejoin:round;}
	.st21{fill:none;stroke:#FFFFFF;stroke-width:10;stroke-linecap:round;stroke-linejoin:round;}
	.st22{fill:none;stroke:#5DFFD3;stroke-width:3;stroke-linecap:round;stroke-linejoin:round;}
	.st23{fill:#FD3A5C;stroke:#FFFFFF;stroke-width:3;stroke-linecap:round;stroke-linejoin:round;}
	.st24{fill:none;stroke:#FFFFFF;stroke-width:3;stroke-linecap:round;stroke-linejoin:round;}
	.st25{fill:#FFFFFF;stroke:#3C3C3C;stroke-width:3;stroke-linejoin:round;}
	.st26{clip-path:url(#SVGID_2_);}
	.st27{fill:none;stroke:#5DFFD3;stroke-width:20;stroke-linecap:round;stroke-linejoin:round;}
	.st28{fill:#3C3C3C;stroke:#3C3C3C;stroke-width:3;stroke-linecap:round;stroke-linejoin:round;}
	.st29{fill:none;stroke:#3C3C3C;stroke-width:3;stroke-linejoin:round;}
	.st30{fill:#B4FDFE;stroke:#B4FDFE;stroke-width:3;stroke-linecap:round;stroke-linejoin:round;}
	.st31{fill:none;stroke:#FD637E;stroke-width:3;stroke-linecap:round;stroke-linejoin:round;}
	.st32{fill:none;stroke:#FD637E;stroke-width:10;stroke-linecap:round;stroke-linejoin:round;}
</style>
<title>HOTJAR-Hub02_01</title>
<g id="Background">
	<path class="st0" d="M169.8,507.6c0.8,0,1.5-0.7,1.5-1.5s-0.7-1.5-1.5-1.5s-1.5,0.7-1.5,1.5S169,507.6,169.8,507.6z"/>
</g>
<g id="Content">
	<path class="st1" d="M523.8,805.6c61.8,55,141.7,85.4,224.5,85.2c186.8,0,338.2-151.4,338.2-338.2S935.1,214.4,748.2,214.4
		S410,365.9,410,552.7c-0.1,74.9,24.7,147.6,70.6,206.8"/>
	<path class="st2" d="M1263.7,524H964.6c-6.8,0-12.3,5.5-12.3,12.3v185.4h323.8V536.4C1276.1,529.6,1270.6,524,1263.7,524
		C1263.8,524,1263.8,524,1263.7,524z"/>
	<path class="st3" d="M952.6,544.8v-7.8c0-6.8,5.5-12.3,12.3-12.3c0,0,0,0,0,0H1264c6.8,0,12.3,5.5,12.3,12.3v7.8"/>
	<circle class="st4" cx="965.4" cy="534.5" r="3.5"/>
	<circle class="st0" cx="978.3" cy="534.5" r="3.5"/>
	<circle class="st5" cx="991.3" cy="534.5" r="3.5"/>
	<path class="st6" d="M1263.7,524H964.6c-6.8,0-12.3,5.5-12.3,12.3v185.4h323.8V536.4C1276.1,529.6,1270.6,524,1263.7,524
		C1263.8,524,1263.8,524,1263.7,524z"/>
	<line class="st7" x1="975.7" y1="642.5" x2="1045.5" y2="642.5"/>
	<line class="st8" x1="975.7" y1="656" x2="1139.6" y2="656"/>
	<line class="st8" x1="975.7" y1="665.3" x2="1139.6" y2="665.3"/>
	<line class="st8" x1="975.7" y1="674.7" x2="1111.5" y2="674.7"/>
	<rect x="1153.8" y="639.8" class="st3" width="102.5" height="62.8"/>
	<circle class="st0" cx="1204.9" cy="670.5" r="11.5"/>
	<polygon class="st9" points="1203.3,673.9 1208.6,670.5 1203.3,667.1 	"/>
	<path class="st4" d="M1048.8,687.5h31.3c3.7,0,6.6,3,6.6,6.6l0,0c0,3.7-3,6.6-6.6,6.6h-31.3c-3.7,0-6.6-3-6.6-6.6l0,0
		C1042.1,690.5,1045.1,687.5,1048.8,687.5z"/>
	<path class="st10" d="M979.2,556.6h0.4c3.1,0,5.7,2.5,5.7,5.7v0c0,3.1-2.5,5.7-5.7,5.7h-0.4c-3.1,0-5.7-2.5-5.7-5.7v0
		C973.6,559.1,976.1,556.6,979.2,556.6z"/>
	<line class="st8" x1="995.5" y1="562.2" x2="1012.9" y2="562.2"/>
	<line class="st8" x1="1025.5" y1="562.2" x2="1042.9" y2="562.2"/>
	<line class="st8" x1="1055.5" y1="562.2" x2="1072.9" y2="562.2"/>
	<line class="st8" x1="1085.5" y1="562.2" x2="1102.9" y2="562.2"/>
	<line class="st11" x1="1237.6" y1="562.2" x2="1255" y2="562.2"/>
	<rect x="972.1" y="575.2" class="st12" width="284.8" height="54.9"/>
	<polyline class="st13" points="763.5,633.5 763.5,719.4 770.1,719.4 	"/>
	<polyline class="st13" points="748,633.5 748,719.4 741.4,719.4 	"/>
	<path class="st4" d="M751.2,592.2h9.8c13.4,0,24.2,10.8,24.2,24.2l0,0v21.7l0,0H727l0,0v-21.7C727,603,737.8,592.2,751.2,592.2
		L751.2,592.2z"/>
	<rect x="745.8" y="587.6" class="st4" width="20.7" height="11.3"/>
	<path class="st14" d="M713.3,582.5L713.3,582.5c-0.9-3.4,1.2-7,4.6-7.8l4-1c3.4-0.9,7,1.2,7.8,4.6l0,0c0.9,3.4-1.2,7-4.6,7.8l-4,1
		C717.7,588,714.2,585.9,713.3,582.5z"/>
	<polyline class="st15" points="746.2,603.5 712.6,621.1 718.2,589.9 	"/>
	<circle class="st14" cx="756.2" cy="566.1" r="18.5"/>
	<line class="st16" x1="748.6" y1="557.2" x2="748.3" y2="558.8"/>
	<line class="st16" x1="756" y1="558.2" x2="755.8" y2="559.9"/>
	<path class="st14" d="M788,640L788,640c-3.6,0-6.4-2.9-6.4-6.4v-4.1c0-3.6,2.9-6.4,6.4-6.4l0,0c3.6,0,6.4,2.9,6.4,6.4v4.1
		C794.5,637.1,791.6,640,788,640z"/>
	<polyline class="st15" points="772.2,607.6 811.8,615.1 794.5,626.7 	"/>
	<rect x="880.3" y="262.6" class="st14" width="147.1" height="191.9"/>
	<line class="st8" x1="934.1" y1="280.2" x2="982.7" y2="280.2"/>
	<path class="st3" d="M903.6,305.7h14.3c1.4,0,2.5,1.1,2.5,2.5v14.3c0,1.4-1.1,2.5-2.5,2.5h-14.3c-1.4,0-2.5-1.1-2.5-2.5v-14.3
		C901.1,306.8,902.2,305.7,903.6,305.7z"/>
	<line class="st8" x1="929.8" y1="310.2" x2="963.1" y2="310.2"/>
	<line class="st8" x1="929.8" y1="320.1" x2="1004.8" y2="320.1"/>
	<path class="st3" d="M903.6,339.8h14.3c1.4,0,2.5,1.1,2.5,2.5v14.3c0,1.4-1.1,2.5-2.5,2.5h-14.3c-1.4,0-2.5-1.1-2.5-2.5v-14.3
		C901.1,340.9,902.2,339.8,903.6,339.8z"/>
	<line class="st8" x1="929.8" y1="344.2" x2="963.1" y2="344.2"/>
	<line class="st8" x1="929.8" y1="354.1" x2="1004.8" y2="354.1"/>
	<path class="st3" d="M903.6,375.5h14.3c1.4,0,2.5,1.1,2.5,2.5v14.3c0,1.4-1.1,2.5-2.5,2.5h-14.3c-1.4,0-2.5-1.1-2.5-2.5v-14.3
		C901.1,376.6,902.2,375.5,903.6,375.5z"/>
	<line class="st8" x1="929.8" y1="379.9" x2="963.1" y2="379.9"/>
	<line class="st8" x1="929.8" y1="389.9" x2="1004.8" y2="389.9"/>
	<path class="st3" d="M903.6,410.8h14.3c1.4,0,2.5,1.1,2.5,2.5v14.3c0,1.4-1.1,2.5-2.5,2.5h-14.3c-1.4,0-2.5-1.1-2.5-2.5v-14.3
		C901.1,411.9,902.2,410.8,903.6,410.8z"/>
	<line class="st8" x1="929.8" y1="415.2" x2="963.1" y2="415.2"/>
	<line class="st8" x1="929.8" y1="425.2" x2="1004.8" y2="425.2"/>
	<polyline class="st17" points="906.1,314.6 910.8,319.4 918.7,306.5 	"/>
	<polyline class="st17" points="906.1,348.6 910.8,353.4 918.7,340.6 	"/>
	<polyline class="st17" points="906.1,383.5 910.8,388.3 918.7,375.5 	"/>
	<polyline class="st17" points="906.1,419.6 910.8,424.4 918.7,411.5 	"/>
	<path class="st11" d="M387.8,698.1c25.7,27.1,71.5,15.6,88.5-6.8c25.7-33.9,12.5-92.1-35.3-104.5c-64.8-16.9-164.5,47.4-222.2,66.4
		c-47.6,15.8-84.8,8.1-95.3-27.7c-8.3-28.3,13.7-57,40-58.2"/>
	<path class="st2" d="M507.2,524.5H208.1c-6.8,0-12.3,5.5-12.3,12.3c0,0,0,0,0,0v185.4h323.8V536.9
		C519.6,530.1,514.1,524.5,507.2,524.5L507.2,524.5z"/>
	<path class="st3" d="M196.1,545.3v-7.8c0-6.8,5.5-12.3,12.4-12.3h299.1c6.8,0,12.3,5.5,12.3,12.3c0,0,0,0,0,0v7.8"/>
	<circle class="st4" cx="208.9" cy="535" r="3.5"/>
	<circle class="st0" cx="221.9" cy="535" r="3.5"/>
	<circle class="st5" cx="234.8" cy="535" r="3.5"/>
	<path class="st6" d="M507.2,524.5H208.1c-6.8,0-12.3,5.5-12.3,12.3c0,0,0,0,0,0v185.4h323.8V536.9
		C519.6,530.1,514.1,524.5,507.2,524.5L507.2,524.5z"/>
	<line class="st7" x1="219.8" y1="634.5" x2="291.5" y2="634.5"/>
	<line class="st8" x1="219.8" y1="647" x2="427.5" y2="647"/>
	<line class="st8" x1="219.8" y1="656.8" x2="427.5" y2="656.8"/>
	<line class="st8" x1="219.8" y1="666.7" x2="427.5" y2="666.7"/>
	<line class="st8" x1="219.8" y1="676.5" x2="427.5" y2="676.5"/>
	<line class="st8" x1="219.8" y1="686.3" x2="495" y2="686.3"/>
	<line class="st8" x1="219.8" y1="696.3" x2="495" y2="696.3"/>
	<rect x="444.2" y="645.8" class="st3" width="51" height="31.2"/>
	<circle class="st0" cx="469.6" cy="661.1" r="5.7"/>
	<polygon class="st9" points="468.8,662.8 471.5,661.1 468.8,659.4 	"/>
	<rect x="215.6" y="559.5" class="st12" width="284.8" height="37.7"/>
	<path class="st18" d="M359.7,570h0.6c4.8,0,8.8,3.9,8.8,8.8v0c0,4.8-3.9,8.8-8.8,8.8h-0.6c-4.8,0-8.8-3.9-8.8-8.8v0
		C350.9,574,354.8,570,359.7,570z"/>
	<line class="st8" x1="217.4" y1="609.2" x2="253.4" y2="609.2"/>
	<line class="st8" x1="279.3" y1="609.2" x2="315.2" y2="609.2"/>
	<line class="st8" x1="341.1" y1="609.2" x2="377" y2="609.2"/>
	<line class="st8" x1="403" y1="609.2" x2="438.9" y2="609.2"/>
	<line class="st8" x1="463.6" y1="609.2" x2="499.5" y2="609.2"/>
	<polygon class="st19" points="468.6,685.5 466.2,673.6 478.1,676.1 471.5,678.9 	"/>
	<line class="st20" x1="470" y1="677.4" x2="477.4" y2="684.7"/>
	<path class="st11" d="M483.5,692c25.7,27.1,72,18.2,91-5.8c27.2-34.5,10-93.2-37.7-105.6c-4.5-1.3-9.1-2.1-13.7-2.5"/>
	<line class="st11" x1="174.4" y1="567.8" x2="176" y2="567.9"/>
	<circle class="st10" cx="1267.8" cy="508.8" r="43.6"/>
	<polyline class="st21" points="1256.3,511.1 1265.6,523.6 1285.1,498.1 	"/>
	<line class="st22" x1="1267" y1="441.5" x2="1267" y2="433"/>
	<line class="st22" x1="1267" y1="582.7" x2="1267" y2="574.2"/>
	<line class="st22" x1="1200.7" y1="507.8" x2="1192.2" y2="507.8"/>
	<line class="st22" x1="1341.9" y1="507.8" x2="1333.4" y2="507.8"/>
	<line class="st22" x1="1220.1" y1="554.7" x2="1214.1" y2="560.7"/>
	<line class="st22" x1="1319.9" y1="454.9" x2="1313.9" y2="460.9"/>
	<line class="st22" x1="1220.1" y1="460.9" x2="1214.1" y2="454.9"/>
	<line class="st22" x1="1319.9" y1="560.7" x2="1313.9" y2="554.7"/>
	<path class="st3" d="M392.2,405.8h265.9c4.8,0,8.8,3.9,8.8,8.8v39.9c0,4.8-3.9,8.8-8.8,8.8H392.2c-4.8,0-8.8-3.9-8.8-8.8v-39.9
		C383.5,409.7,387.4,405.8,392.2,405.8z"/>
	<circle class="st0" cx="423.9" cy="434.4" r="14.8"/>
	<circle class="st0" cx="474.8" cy="434.2" r="14.8"/>
	<circle class="st0" cx="525.9" cy="434.2" r="14.8"/>
	<circle class="st23" cx="576.9" cy="434.2" r="16.1"/>
	<circle class="st0" cx="628" cy="434.2" r="14.8"/>
	<polyline class="st11" points="420,433.5 424.2,428.4 424.2,441.9 	"/>
	<path class="st11" d="M471.9,431.8c-0.5-1.9,0.6-3.8,2.5-4.3c0.3-0.1,0.7-0.1,1-0.1c1.9-0.2,3.6,1.3,3.8,3.2c0,0.5,0,1-0.2,1.4
		c-0.8,2.8-4.8,5.3-7.4,8.8h8.2"/>
	<path class="st11" d="M522.5,428.4c0.6-1.4,2-2.2,3.5-2.1c2,0,3.8,1.5,3.9,3.6c0,2-1.7,3.7-3.7,3.7c-0.1,0-0.1,0-0.2,0l0,0
		c2.2,0,4,1.8,4,4s-1.8,4-4,4c-2.2,0.1-4.2-1.4-4.7-3.6"/>
	<path class="st11" d="M623.5,437.9c0.5,2.2,2.4,3.7,4.7,3.6c2.3,0.1,4.2-1.7,4.3-4c0-0.1,0-0.2,0-0.3c0-2.3-1.9-4.2-4.2-4.2
		c0,0,0,0,0,0h-2.3v-5.6h4.7"/>
	<polyline class="st24" points="581.7,439.2 570.6,439.2 579.2,426.6 579.2,441.8 	"/>
	<rect x="534.1" y="181.4" class="st25" width="257.6" height="163.5"/>
	<rect x="534.7" y="181.4" class="st25" width="257.6" height="163.5"/>
	<rect x="726.6" y="298.2" class="st14" width="54.9" height="36"/>
	<g>
		<defs>
			<rect id="SVGID_1_" x="535.2" y="182.6" width="255.7" height="161.8"/>
		</defs>
		<clipPath id="SVGID_2_">
			<use xlink:href="#SVGID_1_"  style="overflow:visible;"/>
		</clipPath>
		<g class="st26">
			<polyline class="st27" points="657.6,311.6 677.5,338.7 685.8,317.4 			"/>
			<path class="st10" d="M642.7,294L642.7,294c16.1,0,29.2,13.1,29.2,29.1c0,0,0,0,0,0v21.5l0,0h-58.3l0,0v-21.5
				C613.5,307.1,626.6,294,642.7,294C642.7,294,642.7,294,642.7,294z"/>
			<path class="st16" d="M665.2,270.4h11.7c3.7,0,6.7,3,6.7,6.7v0l0,0c0,3.7-3,6.7-6.7,6.7l0,0h-5.5"/>
			<path class="st4" d="M667.7,280.6h4.2c1.7,0,3.2,1.4,3.2,3.1l0,0c0,1.7-1.4,3.1-3.2,3.1h-4.2c-1.7,0-3.2-1.4-3.2-3.1l0,0
				C664.6,282,666,280.6,667.7,280.6z"/>
			<circle class="st28" cx="618.8" cy="234" r="20.8"/>
			<path class="st14" d="M636.9,235.9L636.9,235.9c13.1-2.9,26.1,5.5,28.9,18.6l0.5,2.2c2.9,13.1-5.5,26.1-18.6,28.9l0,0
				c-13.1,2.9-26.1-5.5-28.9-18.6l-0.5-2.2C615.5,251.7,623.8,238.8,636.9,235.9z"/>
			<polyline class="st16" points="652.1,272 636.8,271.5 643.8,277.1 			"/>
			<path class="st28" d="M656.5,240.4l-37.8,15.9c0,0,0.1-9.2,10.3-15.6C639.6,234,648.6,235.4,656.5,240.4z"/>
			<line class="st16" x1="640.4" y1="258.5" x2="640.4" y2="261.6"/>
			<line class="st16" x1="647.6" y1="258.5" x2="647.6" y2="261.6"/>
			<path class="st14" d="M621.1,335.3l2.1-1.7c4.2-3.5,10.4-2.9,13.8,1.3l0,0c3.5,4.2,2.9,10.4-1.3,13.8l-2.1,1.7
				c-4.2,3.5-10.4,2.9-13.8-1.3l0,0C616.4,345,616.9,338.8,621.1,335.3z"/>
			<path class="st14" d="M679.3,307.5l2.1-1.7c4.2-3.5,10.4-2.9,13.8,1.3l0,0c3.5,4.2,2.9,10.4-1.3,13.8l-2.1,1.7
				c-4.2,3.5-10.4,2.9-13.8-1.3l0,0C674.6,317.1,675.1,311,679.3,307.5z"/>
			<rect x="628.1" y="289.2" class="st10" width="27.5" height="14"/>
		</g>
	</g>
	<rect x="726.6" y="298.2" class="st16" width="54.9" height="36"/>
	<rect x="534.1" y="181.4" class="st29" width="257.6" height="163.5"/>
	<circle class="st4" cx="778.7" cy="195.1" r="3.9"/>
	<line class="st20" x1="767.4" y1="195.6" x2="753.1" y2="195.6"/>
	<path class="st14" d="M755.1,307.2L755.1,307.2c3.2,0.6,5.3,3.6,4.8,6.8l0,0.1c-0.6,3.2-3.6,5.3-6.8,4.8l0,0
		c-3.2-0.6-5.3-3.6-4.8-6.8l0-0.1C748.9,308.7,751.9,306.6,755.1,307.2z"/>
	<path class="st4" d="M752.4,322.3h3.3c4.9,0,8.8,3.9,8.8,8.8v1.6l0,0h-20.9l0,0v-1.6C743.6,326.2,747.6,322.3,752.4,322.3
		L752.4,322.3z"/>
	<rect x="749.2" y="319.7" class="st4" width="9.8" height="5.2"/>
	<polygon class="st30" points="1085.4,337.4 1101.3,337.4 1109.2,347.4 1101.3,357.4 1085.4,357.4 1070.5,347.4 	"/>
	<path class="st30" d="M1189.8,374.3h-102.6c-3.5,0-6.3-2.8-6.3-6.3v-41.2c0-3.5,2.8-6.3,6.3-6.3h102.6c3.5,0,6.3,2.8,6.3,6.3V368
		C1196.1,371.5,1193.3,374.3,1189.8,374.3z"/>
	<line class="st24" x1="1100" y1="341.6" x2="1177.7" y2="341.6"/>
	<line class="st24" x1="1100" y1="354.4" x2="1154.1" y2="354.4"/>
	<path class="st31" d="M327.6,434l-12.4-8.2V419c0-4.1-3.3-7.4-7.4-7.4h-81.1c-4.1,0-7.4,3.3-7.4,7.4v29.2c0,4.1,3.3,7.4,7.4,7.4
		l0,0h81.1c4.1,0,7.4-3.3,7.4-7.4v-6.1L327.6,434z"/>
	<path class="st30" d="M452.6,345.5H353c-4.1,0-7.5-3.3-7.5-7.5v-49c0-4.1,3.3-7.5,7.5-7.5h99.6c4.1,0,7.5,3.3,7.5,7.5v49
		C460,342.1,456.7,345.5,452.6,345.5z"/>
	<polygon class="st30" points="444.5,332.1 444.5,360.4 406,332.6 	"/>
	<line class="st24" x1="438.1" y1="306.6" x2="368.2" y2="306.6"/>
	<line class="st24" x1="411.2" y1="317.8" x2="368.2" y2="317.8"/>
	<path class="st31" d="M933.3,136h-73.7c-3,0-5.5,2.5-5.5,5.5c0,0,0,0,0,0v36.2c0,3,2.5,5.5,5.5,5.5l0,0h5.9v11l15.3-11h52.4
		c3,0,5.5-2.5,5.5-5.5c0,0,0,0,0,0v-36.2C938.8,138.5,936.4,136,933.3,136C933.3,136,933.3,136,933.3,136z"/>
	<line class="st16" x1="647.4" y1="722.4" x2="853.2" y2="722.4"/>
	<line class="st16" x1="682.6" y1="742.4" x2="772.8" y2="742.4"/>
	<line class="st16" x1="793.2" y1="742.4" x2="811" y2="742.4"/>
	<polyline class="st32" points="518.1,811.3 518.1,800 529.5,800 	"/>
</g>
</svg>
